<svg xmlns="http://www.w3.org/2000/svg" viewBox="0 0 1024 1024">
  <g fill="none" fill-rule="evenodd">
    <path fill="#FFF" d="M357.009067,0 L666.990933,0 C769.792,0 821.179733,0 876.5184,17.4933333 C936.9344,39.4837333 984.516267,87.0656 1006.50667,147.4816 C1024,202.811733 1024,254.216533 1024,357.009067 L1024,666.990933 C1024,769.792 1024,821.179733 1006.50667,876.5184 C984.516267,936.9344 936.9344,984.516267 876.5184,1006.49813 C821.179733,1024 769.792,1024 666.990933,1024 L357.009067,1024 C254.208,1024 202.811733,1024 147.4816,1006.49813 C87.0656,984.516267 39.4837333,936.9344 17.4933333,876.5184 C0,821.179733 0,769.792 0,666.990933 L0,357.009067 C0,254.216533 0,202.811733 17.4933333,147.4816 C39.4837333,87.0656 87.0656,39.4837333 147.4816,17.4933333 C202.811733,0 254.208,0 357.009067,0 L357.009067,0"/>
    <path fill="#D0021B" d="M120.388511,676.726932 C124.498386,696.222653 130.783666,715.191273 139.083727,733.297683 C201.877166,869.195245 336.759275,964.945936 494.711853,971.553885 L494.711853,392.229046 L408.027366,478.837517 C410.035164,483.881621 411.170006,489.369046 411.170006,495.128749 C411.170006,513.291011 400.181242,528.880605 384.495976,535.645638 L384.495976,745.658354 C400.181242,752.426877 411.170006,768.012981 411.170006,786.178733 C411.170006,810.547511 391.409784,830.298054 367.036865,830.298054 C342.660454,830.298054 322.900232,810.547511 322.900232,786.178733 C322.900232,768.012981 333.888997,752.426877 349.577754,745.658354 L349.577754,537.23741 L287.203334,599.557391 C289.211131,604.598003 290.345974,610.081938 290.345974,615.83815 C290.345974,640.203437 270.585752,659.957471 246.212833,659.957471 C221.836422,659.957471 202.0762,640.203437 202.0762,615.83815 C202.0762,591.469372 221.836422,571.715338 246.212833,571.715338 C251.977831,571.715338 257.470468,572.853316 262.519642,574.863976 L326.03938,511.402526 C324.035074,506.361914 322.900232,500.88147 322.900232,495.128749 C322.900232,470.759971 342.660454,451.005937 367.036865,451.005937 C372.798372,451.005937 378.291008,452.143914 383.336691,454.151084 L494.711853,342.877122 L494.711853,339.463189 C436.426356,340.587204 379.523621,347.32082 324.50647,359.143918 C181.261448,391.317965 90.0306085,532.664555 120.388511,676.726932"/>
    <path fill="#161616" d="M512.169916,150.665029 C561.928383,150.665029 607.800451,167.183157 644.681078,194.986812 L727.234738,112.54627 C720.959934,96.7646854 724.448264,78.4069427 736.079524,66.0462721 C746.631811,54.8340512 762.645308,49.8807071 777.698553,53.1689736 C792.416584,56.3874255 804.756684,67.2715179 809.812842,81.4543489 C815.00169,95.9932343 812.047608,112.609103 802.179719,124.4706 C790.077063,139.019957 769.517214,144.259541 751.907954,137.239686 L670.859269,218.179214 C700.651496,249.093108 721.529101,288.653537 729.270471,332.758896 C674.029843,319.420821 617.563586,311.217608 560.814492,308.246998 C503.339098,305.23799 445.580867,307.562815 388.541951,315.235437 C357.108567,319.46271 325.89866,325.316662 295.072853,332.758896 C302.810731,288.653537 323.688337,249.093108 353.477072,218.179214 L272.428386,137.239686 C256.638366,143.53696 238.246939,140.049722 225.875413,128.415123 C214.656188,117.866141 209.701292,101.854168 212.990589,86.8091269 C216.210049,72.0957051 227.09755,59.7594695 241.284824,54.7014035 C255.828264,49.5176713 272.449337,52.4708278 284.314549,62.3356274 C298.854497,74.4275119 304.099214,94.9529971 297.105094,112.54627 L379.658755,194.986812 C416.542873,167.183157 462.41145,150.665029 512.169916,150.665029"/>
    <path fill="#D0021B" d="M700.196272,359.235741 C645.179122,347.412642 588.279878,340.679026 529.994382,339.551521 L529.994382,342.965454 L641.366052,454.242906 C646.415227,452.235737 651.904371,451.094269 657.66937,451.094269 C682.045781,451.094269 701.806002,470.851794 701.806002,495.217081 C701.806002,500.973292 700.67116,506.450246 698.666854,511.490858 L762.1831,574.955798 C767.232275,572.945138 772.724912,571.807161 778.493402,571.807161 C802.866321,571.807161 822.630035,591.561195 822.630035,615.926482 C822.630035,640.29526 802.866321,660.049294 778.493402,660.049294 C754.116991,660.049294 734.356769,640.29526 734.356769,615.926482 C734.356769,610.17027 735.491611,604.686335 737.502901,599.645723 L675.124989,537.325742 L675.124989,745.750176 C690.813746,752.515209 701.806002,768.104803 701.806002,786.270556 C701.806002,810.635843 682.045781,830.389877 657.66937,830.389877 C633.296451,830.389877 613.536229,810.635843 613.536229,786.270556 C613.536229,768.104803 624.521501,752.515209 640.206767,745.750176 L640.206767,535.73746 C624.521501,528.972428 613.536229,513.382833 613.536229,495.217081 C613.536229,489.457378 614.671071,483.969952 616.678869,478.92934 L529.994382,392.317377 L529.994382,971.642217 C687.943468,965.037758 822.825577,869.283577 885.622508,733.389506 C893.919077,715.279605 900.204357,696.310984 904.314232,676.818755 C934.672134,532.752887 843.441295,391.409788 700.196272,359.235741"/>
  </g>
</svg>
