<svg xmlns="http://www.w3.org/2000/svg" xmlns:xlink="http://www.w3.org/1999/xlink" viewBox="0 0 1024 1024"><defs><path id="a" d="M357.009067 0h309.981866C769.792 0 821.179733 0 876.5184 17.4933333c60.416 21.9904 107.997867 69.5722667 129.98827 129.9882667C1024 202.811733 1024 254.216533 1024 357.009067v309.981866c0 102.801067 0 154.1888-17.49333 209.527467-21.990403 60.416-69.57227 107.997867-129.98827 129.97973C821.179733 1024 769.792 1024 666.990933 1024H357.009067c-102.801067 0-154.197334 0-209.527467-17.50187C87.0656 984.516267 39.4837333 936.9344 17.4933333 876.5184 0 821.179733 0 769.792 0 666.990933V357.009067C0 254.216533 0 202.811733 17.4933333 147.4816 39.4837333 87.0656 87.0656 39.4837333 147.4816 17.4933333 202.811733 0 254.208 0 357.009067 0"/></defs><g fill="none" fill-rule="evenodd"><mask id="b" fill="#fff"><use xlink:href="#a"/></mask><use fill="#FFF" xlink:href="#a"/><g mask="url(#b)"><path fill="#D0021B" d="M120.38851087 676.726932c4.10987473 19.495721 10.39515473 38.464341 18.69521613 56.570751 62.793439 135.897562 197.675548 231.648253 355.628126 238.256202V392.229046l-86.684487 86.608471c2.007798 5.044104 3.14264 10.531529 3.14264 16.291232 0 18.162262-10.988764 33.751856-26.67403 40.516889v210.012716c15.685266 6.768523 26.67403 22.354627 26.67403 40.520379 0 24.368778-19.760222 44.119321-44.133141 44.119321-24.376411 0-44.136633-19.750543-44.136633-44.119321 0-18.165752 10.988765-33.751856 26.677522-40.520379V537.23741l-62.37442 62.319981c2.007797 5.040612 3.14264 10.524547 3.14264 16.280759 0 24.365287-19.760222 44.119321-44.133141 44.119321-24.376411 0-44.1366332-19.754034-44.1366332-44.119321 0-24.368778 19.7602222-44.122812 44.1366332-44.122812 5.764998 0 11.257635 1.137978 16.306809 3.148638l63.519738-63.46145c-2.004306-5.040612-3.139148-10.521056-3.139148-16.273777 0-24.368778 19.760222-44.122812 44.136633-44.122812 5.761507 0 11.254143 1.137977 16.299826 3.145147l111.375162-111.273962v-3.413933c-58.285497 1.124015-115.188232 7.857631-170.205383 19.680729-143.2450224 32.174047-234.4758615 173.520637-204.11795913 317.583014"/><path fill="#161616" d="M512.169916 150.6650285c49.758467 0 95.630535 16.5181285 132.511162 44.3217835l82.55366-82.4405418c-6.274804-15.7815848-2.786474-34.1393275 8.844786-46.4999981 10.552287-11.21222088 26.565784-16.16556503 41.619029-12.87729851 14.718031 3.21845194 27.058131 14.10254431 32.114289 28.28537531 5.188848 14.5388854 2.234766 31.1547544-7.633123 43.0162508-12.102656 14.5493576-32.662505 19.7889415-50.271765 12.7690859l-81.048685 80.9395284c29.792227 30.913894 50.669832 70.474323 58.411202 114.579682-55.240628-13.338075-111.706885-21.541288-168.455979-24.511898-57.475394-3.009008-115.233625-.684183-172.272541 6.988439-31.433384 4.227273-62.643291 10.081225-93.469098 17.523459 7.737878-44.105359 28.615484-83.665788 58.404219-114.579682l-81.048686-80.9395284c-15.79002 6.2972748-34.181447 2.8100367-46.552973-8.8245623-11.219225-10.5489824-16.174121-26.5609554-12.8848245-41.6059964 3.2194605-14.7134218 14.1069615-27.04965737 28.2942355-32.10772338 14.54344-5.18373224 31.164513-2.2305757 43.029725 7.63422388 14.539948 12.0918845 19.784665 32.6173697 12.790545 50.2106428l82.553661 82.4405418c36.884118-27.803655 82.752695-44.3217835 132.511161-44.3217835"/><path fill="#D0021B" d="M700.196272 359.235741c-55.01715-11.823099-111.916394-18.556715-170.20189-19.68422v3.413933l111.37167 111.277452c5.049175-2.007169 10.538319-3.148637 16.303318-3.148637 24.376411 0 44.136632 19.757525 44.136632 44.122812 0 5.756211-1.134842 11.233165-3.139148 16.273777l63.516246 63.46494c5.049175-2.01066 10.541812-3.148637 16.310302-3.148637 24.372919 0 44.136633 19.754034 44.136633 44.119321 0 24.368778-19.763714 44.122812-44.136633 44.122812-24.376411 0-44.136633-19.754034-44.136633-44.122812 0-5.756212 1.134842-11.240147 3.146132-16.280759l-62.377912-62.319981v208.424434c15.688757 6.765033 26.681013 22.354627 26.681013 40.52038 0 24.365287-19.760221 44.119321-44.136632 44.119321-24.372919 0-44.133141-19.754034-44.133141-44.119321 0-18.165753 10.985272-33.755347 26.670538-40.52038V535.73746c-15.685266-6.765032-26.670538-22.354627-26.670538-40.520379 0-5.759703 1.134842-11.247129 3.14264-16.287741l-86.684487-86.611963v579.32484c157.949086-6.604459 292.831195-102.35864 355.628126-238.252711 8.296569-18.109901 14.581849-37.078522 18.691724-56.570751 30.357902-144.065868-60.872937-285.408967-204.11796-317.583014"/></g></g></svg>