<svg xmlns="http://www.w3.org/2000/svg" xmlns:xlink="http://www.w3.org/1999/xlink" viewBox="0 0 3740 1150"><defs><path id="git-bug--logotype--shadow-b" d="M420.009067,31 L729.990933,31 C832.792,31 884.179733,31 939.5184,48.4933333 C999.9344,70.4837333 1047.51627,118.0656 1069.50667,178.4816 C1087,233.811733 1087,285.216533 1087,388.009067 L1087,697.990933 C1087,800.792 1087,852.179733 1069.50667,907.5184 C1047.51627,967.9344 999.9344,1015.51627 939.5184,1037.49813 C884.179733,1055 832.792,1055 729.990933,1055 L420.009067,1055 C317.208,1055 265.811733,1055 210.4816,1037.49813 C150.0656,1015.51627 102.483733,967.9344 80.4933333,907.5184 C63,852.179733 63,800.792 63,697.990933 L63,388.009067 C63,285.216533 63,233.811733 80.4933333,178.4816 C102.483733,118.0656 150.0656,70.4837333 210.4816,48.4933333 C265.811733,31 317.208,31 420.009067,31 L420.009067,31"/><filter id="git-bug--logotype--shadow-a" width="121.9%" height="121.9%" x="-10.9%" y="-7.8%" filterUnits="objectBoundingBox"><feOffset dy="32" in="SourceAlpha" result="shadowOffsetOuter1"/><feGaussianBlur in="shadowOffsetOuter1" result="shadowBlurOuter1" stdDeviation="32"/><feColorMatrix in="shadowBlurOuter1" values="0 0 0 0 0 0 0 0 0 0 0 0 0 0 0 0 0 0 0.3 0"/></filter></defs><g fill="none" fill-rule="evenodd"><use fill="#000" filter="url(#git-bug--logotype--shadow-a)" xlink:href="#git-bug--logotype--shadow-b"/><use fill="#FFF" xlink:href="#git-bug--logotype--shadow-b"/><path fill="#D0021B" d="M183.388511,707.726932 C187.498386,727.222653 193.783666,746.191273 202.083727,764.297683 C264.877166,900.195245 399.759275,995.945936 557.711853,1002.55389 L557.711853,423.229046 L471.027366,509.837517 C473.035164,514.881621 474.170006,520.369046 474.170006,526.128749 C474.170006,544.291011 463.181242,559.880605 447.495976,566.645638 L447.495976,776.658354 C463.181242,783.426877 474.170006,799.012981 474.170006,817.178733 C474.170006,841.547511 454.409784,861.298054 430.036865,861.298054 C405.660454,861.298054 385.900232,841.547511 385.900232,817.178733 C385.900232,799.012981 396.888997,783.426877 412.577754,776.658354 L412.577754,568.23741 L350.203334,630.557391 C352.211131,635.598003 353.345974,641.081938 353.345974,646.83815 C353.345974,671.203437 333.585752,690.957471 309.212833,690.957471 C284.836422,690.957471 265.0762,671.203437 265.0762,646.83815 C265.0762,622.469372 284.836422,602.715338 309.212833,602.715338 C314.977831,602.715338 320.470468,603.853316 325.519642,605.863976 L389.03938,542.402526 C387.035074,537.361914 385.900232,531.88147 385.900232,526.128749 C385.900232,501.759971 405.660454,482.005937 430.036865,482.005937 C435.798372,482.005937 441.291008,483.143914 446.336691,485.151084 L557.711853,373.877122 L557.711853,370.463189 C499.426356,371.587204 442.523621,378.32082 387.50647,390.143918 C244.261448,422.317965 153.030609,563.664555 183.388511,707.726932"/><path fill="#161616" d="M575.169916,181.665029 C624.928383,181.665029 670.800451,198.183157 707.681078,225.986812 L790.234738,143.54627 C783.959934,127.764685 787.448264,109.406943 799.079524,97.0462721 C809.631811,85.8340512 825.645308,80.8807071 840.698553,84.1689736 C855.416584,87.3874255 867.756684,98.2715179 872.812842,112.454349 C878.00169,126.993234 875.047608,143.609103 865.179719,155.4706 C853.077063,170.019957 832.517214,175.259541 814.907954,168.239686 L733.859269,249.179214 C763.651496,280.093108 784.529101,319.653537 792.270471,363.758896 C737.029843,350.420821 680.563586,342.217608 623.814492,339.246998 C566.339098,336.23799 508.580867,338.562815 451.541951,346.235437 C420.108567,350.46271 388.89866,356.316662 358.072853,363.758896 C365.810731,319.653537 386.688337,280.093108 416.477072,249.179214 L335.428386,168.239686 C319.638366,174.53696 301.246939,171.049722 288.875413,159.415123 C277.656188,148.866141 272.701292,132.854168 275.990589,117.809127 C279.210049,103.095705 290.09755,90.7594695 304.284824,85.7014035 C318.828264,80.5176713 335.449337,83.4708278 347.314549,93.3356274 C361.854497,105.427512 367.099214,125.952997 360.105094,143.54627 L442.658755,225.986812 C479.542873,198.183157 525.41145,181.665029 575.169916,181.665029"/><path fill="#D0021B" d="M763.196272,390.235741 C708.179122,378.412642 651.279878,371.679026 592.994382,370.551521 L592.994382,373.965454 L704.366052,485.242906 C709.415227,483.235737 714.904371,482.094269 720.66937,482.094269 C745.045781,482.094269 764.806002,501.851794 764.806002,526.217081 C764.806002,531.973292 763.67116,537.450246 761.666854,542.490858 L825.1831,605.955798 C830.232275,603.945138 835.724912,602.807161 841.493402,602.807161 C865.866321,602.807161 885.630035,622.561195 885.630035,646.926482 C885.630035,671.29526 865.866321,691.049294 841.493402,691.049294 C817.116991,691.049294 797.356769,671.29526 797.356769,646.926482 C797.356769,641.17027 798.491611,635.686335 800.502901,630.645723 L738.124989,568.325742 L738.124989,776.750176 C753.813746,783.515209 764.806002,799.104803 764.806002,817.270556 C764.806002,841.635843 745.045781,861.389877 720.66937,861.389877 C696.296451,861.389877 676.536229,841.635843 676.536229,817.270556 C676.536229,799.104803 687.521501,783.515209 703.206767,776.750176 L703.206767,566.73746 C687.521501,559.972428 676.536229,544.382833 676.536229,526.217081 C676.536229,520.457378 677.671071,514.969952 679.678869,509.92934 L592.994382,423.317377 L592.994382,1002.64222 C750.943468,996.037758 885.825577,900.283577 948.622508,764.389506 C956.919077,746.279605 963.204357,727.310984 967.314232,707.818755 C997.672134,563.752887 906.441295,422.409788 763.196272,390.235741"/><path fill="#161616" d="M1763.50529,331 C1813.95742,331 1855,290.181697 1855,240.005257 C1855,189.818303 1813.95742,149 1763.50529,149 C1713.05315,149 1672,189.818303 1672,240.005257 C1672,290.181697 1713.05315,331 1763.50529,331 Z M3581.65742,821.846878 C3567.39333,831.236214 3546.10805,836 3518.39283,836 C3495.46048,836 3478.00781,831.927389 3466.50996,823.877867 C3455.93067,816.48762 3451,808.150995 3451,797.666413 C3451,789.850828 3452.45703,782.854018 3455.32885,776.867386 C3457.45105,772.454504 3460.04836,768.871031 3463.21581,766 C3466.93229,766.606107 3470.79658,767.052712 3474.78757,767.339815 C3480.34117,767.722619 3486.21152,767.924654 3492.40916,767.924654 L3559.2213,767.924654 C3574.90019,767.924654 3586.38749,770.668084 3592.49011,775.867841 C3598.28655,780.833662 3601,787.043597 3601,795.422756 C3601,804.493088 3594.49616,813.393286 3581.65742,821.846878 Z M3471,490.207891 C3471,476.795714 3475.84654,465.88771 3485.81596,456.836613 C3496.10423,447.520243 3509.89987,443 3528,443 C3545.89819,443 3559.66194,447.48841 3570.07775,456.719893 C3580.11095,465.643659 3585,476.604718 3585,490.207891 L3585,498.410116 C3585,511.610075 3580.12157,522.560523 3570.08838,531.866282 C3559.832,541.373648 3546.3127,546 3528.74399,546 C3510.41003,546 3496.44434,541.363037 3486.06041,531.823838 C3475.93157,522.51808 3471,511.588853 3471,498.410116 L3471,490.207891 Z M3687.60858,699.568194 C3660.68345,678.897009 3622.81701,668.41882 3575.05583,668.41882 L3523.39383,668.41882 C3509.96826,668.41882 3499.76694,666.771041 3493.06473,663.528295 C3489.7982,661.943891 3486.7748,659.398283 3486.7748,651.49739 C3486.7748,648.5504 3487.20823,645.951978 3488.11736,643.554247 C3488.41336,642.783171 3488.75164,642.03322 3489.14278,641.283269 C3494.14301,642.128284 3499.25952,642.74092 3504.45004,643.100052 C3511.77595,643.607061 3519.77844,643.871128 3528.22492,643.871128 C3581.99061,643.871128 3626.54868,629.960065 3660.66231,602.539321 C3695.46306,574.558754 3713.10658,539.068114 3713.10658,497.018044 L3713.10658,488.853084 C3713.10658,474.456137 3710.99232,460.566199 3706.8378,447.57409 C3704.66011,440.750592 3701.95385,434.127785 3698.75074,427.74792 L3740,427.74792 L3738.98515,349.436134 L3591.49422,349.436134 C3581.88489,347.26022 3571.75758,345.475125 3561.35541,344.133663 C3550.39296,342.718263 3538.99708,342 3527.48492,342 C3472.76782,342 3427.87145,355.509681 3394.02212,382.148786 C3359.42221,409.379402 3341.86326,445.281986 3341.86326,488.853084 L3341.86326,497.018044 C3341.86326,523.03395 3349.08347,547.159135 3363.31246,568.738711 C3374.72947,586.072086 3390.00502,600.775351 3408.86424,612.595002 C3401.00975,619.841007 3394.34983,627.815839 3388.99017,636.456119 C3380.64941,649.860173 3376.43145,665.661958 3376.43145,683.438966 C3376.43145,694.60373 3378.17572,704.765038 3381.60082,713.616573 C3383.3768,718.20078 3385.61792,722.510358 3388.31361,726.534743 C3372.22407,735.724284 3358.66108,747.131989 3347.89948,760.567731 C3334.02992,777.890543 3327,798.540603 3327,821.947525 C3327,854.427798 3344.81266,881.933044 3379.94113,903.702748 C3413.45219,924.468998 3459.84967,935 3517.82274,935 C3579.8552,935 3630.94635,920.15942 3669.70078,890.900768 C3709.3432,860.944978 3729.4604,827.133806 3729.4604,790.386206 C3729.4604,751.452129 3715.37942,720.894266 3687.60858,699.568194 Z M3327,689.170586 L3278.37298,678.03014 L3278.37298,350 L3101.33049,350 L3101.33049,434.335508 L3148.84875,445.486524 L3148.84875,650.041617 C3142.33347,657.757486 3134.32928,663.676509 3124.48772,668.062928 C3113.41069,673.00954 3099.92606,675.503985 3084.42455,675.503985 C3068.43729,675.503985 3056.90619,670.599652 3049.18711,660.505604 C3040.88726,649.692817 3036.69509,630.667386 3036.69509,603.957795 L3036.69509,350 L2863,350 L2863,434.198102 L2907.17087,445.349118 L2907.17087,603.217917 C2907.17087,662.830934 2920.19087,707.76266 2945.84017,736.744734 C2971.81682,766.107315 3007.95182,781 3053.23145,781 C3079.14474,781 3102.6082,775.450916 3123.00938,764.511293 C3136.19833,757.429605 3148.10958,748.329107 3158.60584,737.304927 L3163.57941,773.199573 L3327,773.199573 L3327,689.170586 Z M2731,572.444398 C2731,606.527627 2725.85319,632.910219 2715.68613,650.874855 C2706.49992,667.109485 2690.33176,675 2666.27464,675 C2651.08733,675 2638.25194,672.194015 2628.14816,666.655885 C2618.84593,661.571356 2611.58977,654.461453 2606,644.956968 L2606,480.859566 C2611.67415,470.521725 2619.01468,462.7156 2628.3591,457.040336 C2638.25194,451.038059 2650.76038,448 2665.53637,448 C2689.09779,448 2705.24485,457.325155 2714.88458,476.492356 C2725.56843,497.76932 2731,527.432594 2731,564.648822 L2731,572.444398 Z M2693.39118,341.728509 C2670.64608,341.728509 2650.13422,346.514345 2632.40595,355.948977 C2622.95441,360.987809 2614.16966,367.207287 2606.1152,374.575788 L2606.1152,172 L2419,172 L2419,256.468949 L2476.67242,267.579678 L2476.67242,771.220381 L2590.0698,771.220381 L2595.44649,737.329495 C2604.96154,747.755028 2615.70434,756.346341 2627.54788,762.99802 C2646.4298,773.613299 2668.83621,779 2694.14265,779 C2748.03657,779 2789.94935,759.487704 2818.71677,721.011271 C2846.78564,683.504654 2861,633.12688 2861,571.301049 L2861,563.510889 C2861,497.626585 2846.83856,443.928241 2818.92845,403.891668 C2790.16104,362.642822 2747.93072,341.728509 2693.39118,341.728509 Z M2173,584 L2404,584 L2404,479 L2173,479 L2173,584 Z M2122.92093,670.635904 C2116.31481,672.050964 2110.33331,673.054178 2105.17757,673.624426 C2100.01125,674.205234 2093.8286,674.490358 2086.80959,674.490358 C2078.81661,674.490358 2072.78218,672.262167 2068.3781,667.700184 C2063.9846,663.14876 2061.66611,654.130395 2061.66611,641.616621 L2061.66611,447.616162 L2132.37488,447.616162 L2132.37488,350.388889 L2061.66611,350.388889 L2061.66611,252 L1932.17982,252 L1932.17982,350.388889 L1873,350.388889 L1873,447.616162 L1932.17982,447.616162 L1932.17982,641.986226 C1932.17982,689.190083 1943.41234,724.534894 1965.54919,747.028007 C1987.73898,769.563361 2019.3933,781 2059.63346,781 C2074.01024,781 2087.58243,780.017906 2099.97949,778.085399 C2112.32361,776.163453 2124.96417,773.238292 2137.55179,769.394399 L2146,766.817723 L2134.29108,668.207071 L2122.92093,670.635904 Z M1828.89697,350 L1641,350 L1641,434.654936 L1699.05222,445.800694 L1699.05222,677.738105 L1646.57869,688.883863 L1646.57869,773 L1881,773 L1881,688.894428 L1828.89697,677.74867 L1828.89697,350 Z M1458,498.410116 C1458,511.610075 1453.12203,522.549912 1443.08977,531.866282 C1432.83434,541.373648 1419.30568,546 1401.74923,546 C1383.41699,546 1369.4526,541.363037 1359.05901,531.823838 C1348.93111,522.51808 1344,511.588853 1344,498.410116 L1344,490.207891 C1344,476.795714 1348.85672,465.88771 1358.82521,456.836613 C1369.10189,447.520243 1382.89624,443 1401.00531,443 C1418.90184,443 1432.66431,447.48841 1443.06852,456.719893 C1453.12203,465.643659 1458,476.604718 1458,490.207891 L1458,498.410116 Z M1365.40916,767.924654 L1432.2213,767.924654 C1447.88963,767.924654 1459.39804,770.668084 1465.47955,775.867841 C1471.29711,780.833662 1474,787.043597 1474,795.422756 C1474,804.493088 1467.48561,813.393286 1454.64686,821.846878 C1440.38277,831.236214 1419.09749,836 1391.39283,836 C1368.46048,836 1351.00781,831.927389 1339.50996,823.877867 C1328.93067,816.48762 1324,808.150995 1324,797.666413 C1324,789.850828 1325.45703,782.854018 1328.32885,776.867386 C1330.44049,772.454504 1333.0378,768.871031 1336.21581,766 C1339.92173,766.606107 1343.79658,767.052712 1347.77701,767.339815 C1353.33061,767.722619 1359.21152,767.924654 1365.40916,767.924654 Z M1611.98515,349.436134 L1464.48364,349.436134 C1454.88489,347.26022 1444.75758,345.475125 1434.35541,344.133663 C1423.38238,342.718263 1411.98651,342 1400.48492,342 C1345.76782,342 1300.87145,355.509681 1267.02212,382.148786 C1232.41164,409.379402 1214.86326,445.281986 1214.86326,488.853084 L1214.86326,497.018044 C1214.86326,523.03395 1222.08347,547.169698 1236.30188,568.738711 C1247.72947,586.072086 1263.00502,600.775351 1281.86424,612.595002 C1273.99918,619.841007 1267.34983,627.815839 1261.9796,636.456119 C1253.64941,649.860173 1249.43145,665.661958 1249.43145,683.438966 C1249.43145,694.60373 1251.16515,704.765038 1254.60082,713.616573 C1256.3768,718.20078 1258.61792,722.510358 1261.31361,726.534743 C1245.2135,735.724284 1231.66108,747.131989 1220.89948,760.567731 C1207.02992,777.879981 1200,798.53004 1200,821.947525 C1200,854.427798 1217.81266,881.933044 1252.94113,903.702748 C1286.45219,924.468998 1332.8391,935 1390.82274,935 C1452.8552,935 1503.94635,920.15942 1542.69021,890.900768 C1582.3432,860.944978 1602.44983,827.123243 1602.44983,790.386206 C1602.44983,751.452129 1588.36884,720.894266 1560.59801,699.568194 C1533.67288,678.897009 1495.81701,668.41882 1448.05583,668.41882 L1396.39383,668.41882 C1382.96826,668.41882 1372.75637,666.771041 1366.06473,663.528295 C1362.7982,661.943891 1359.76423,659.398283 1359.76423,651.49739 C1359.76423,648.5504 1360.20823,645.951978 1361.12793,643.543685 C1361.41336,642.783171 1361.75164,642.03322 1362.13221,641.283269 C1367.13244,642.128284 1372.25952,642.74092 1377.45004,643.100052 C1384.76538,643.607061 1392.76787,643.871128 1401.22492,643.871128 C1454.99061,643.871128 1499.54868,629.960065 1533.65174,602.539321 C1568.45249,574.558754 1586.09601,539.068114 1586.09601,497.018044 L1586.09601,488.853084 C1586.09601,474.456137 1583.99232,460.566199 1579.8378,447.57409 C1577.64953,440.750592 1574.94328,434.127785 1571.74017,427.74792 L1613,427.74792 L1611.98515,349.436134 Z"/></g></svg>