<svg xmlns="http://www.w3.org/2000/svg" viewBox="0 0 3677 1024"><g fill="none" fill-rule="evenodd"><path fill="#FFF" d="M357.009067,0 L666.990933,0 C769.792,0 821.179733,0 876.5184,17.4933333 C936.9344,39.4837333 984.516267,87.0656 1006.50667,147.4816 C1024,202.811733 1024,254.216533 1024,357.009067 L1024,666.990933 C1024,769.792 1024,821.179733 1006.50667,876.5184 C984.516267,936.9344 936.9344,984.516267 876.5184,1006.49813 C821.179733,1024 769.792,1024 666.990933,1024 L357.009067,1024 C254.208,1024 202.811733,1024 147.4816,1006.49813 C87.0656,984.516267 39.4837333,936.9344 17.4933333,876.5184 C0,821.179733 0,769.792 0,666.990933 L0,357.009067 C0,254.216533 0,202.811733 17.4933333,147.4816 C39.4837333,87.0656 87.0656,39.4837333 147.4816,17.4933333 C202.811733,0 254.208,0 357.009067,0 L357.009067,0"/><path fill="#D0021B" d="M120.388511,676.726932 C124.498386,696.222653 130.783666,715.191273 139.083727,733.297683 C201.877166,869.195245 336.759275,964.945936 494.711853,971.553885 L494.711853,392.229046 L408.027366,478.837517 C410.035164,483.881621 411.170006,489.369046 411.170006,495.128749 C411.170006,513.291011 400.181242,528.880605 384.495976,535.645638 L384.495976,745.658354 C400.181242,752.426877 411.170006,768.012981 411.170006,786.178733 C411.170006,810.547511 391.409784,830.298054 367.036865,830.298054 C342.660454,830.298054 322.900232,810.547511 322.900232,786.178733 C322.900232,768.012981 333.888997,752.426877 349.577754,745.658354 L349.577754,537.23741 L287.203334,599.557391 C289.211131,604.598003 290.345974,610.081938 290.345974,615.83815 C290.345974,640.203437 270.585752,659.957471 246.212833,659.957471 C221.836422,659.957471 202.0762,640.203437 202.0762,615.83815 C202.0762,591.469372 221.836422,571.715338 246.212833,571.715338 C251.977831,571.715338 257.470468,572.853316 262.519642,574.863976 L326.03938,511.402526 C324.035074,506.361914 322.900232,500.88147 322.900232,495.128749 C322.900232,470.759971 342.660454,451.005937 367.036865,451.005937 C372.798372,451.005937 378.291008,452.143914 383.336691,454.151084 L494.711853,342.877122 L494.711853,339.463189 C436.426356,340.587204 379.523621,347.32082 324.50647,359.143918 C181.261448,391.317965 90.0306085,532.664555 120.388511,676.726932"/><path fill="#161616" d="M512.169916,150.665029 C561.928383,150.665029 607.800451,167.183157 644.681078,194.986812 L727.234738,112.54627 C720.959934,96.7646854 724.448264,78.4069427 736.079524,66.0462721 C746.631811,54.8340512 762.645308,49.8807071 777.698553,53.1689736 C792.416584,56.3874255 804.756684,67.2715179 809.812842,81.4543489 C815.00169,95.9932343 812.047608,112.609103 802.179719,124.4706 C790.077063,139.019957 769.517214,144.259541 751.907954,137.239686 L670.859269,218.179214 C700.651496,249.093108 721.529101,288.653537 729.270471,332.758896 C674.029843,319.420821 617.563586,311.217608 560.814492,308.246998 C503.339098,305.23799 445.580867,307.562815 388.541951,315.235437 C357.108567,319.46271 325.89866,325.316662 295.072853,332.758896 C302.810731,288.653537 323.688337,249.093108 353.477072,218.179214 L272.428386,137.239686 C256.638366,143.53696 238.246939,140.049722 225.875413,128.415123 C214.656188,117.866141 209.701292,101.854168 212.990589,86.8091269 C216.210049,72.0957051 227.09755,59.7594695 241.284824,54.7014035 C255.828264,49.5176713 272.449337,52.4708278 284.314549,62.3356274 C298.854497,74.4275119 304.099214,94.9529971 297.105094,112.54627 L379.658755,194.986812 C416.542873,167.183157 462.41145,150.665029 512.169916,150.665029"/><path fill="#D0021B" d="M700.196272,359.235741 C645.179122,347.412642 588.279878,340.679026 529.994382,339.551521 L529.994382,342.965454 L641.366052,454.242906 C646.415227,452.235737 651.904371,451.094269 657.66937,451.094269 C682.045781,451.094269 701.806002,470.851794 701.806002,495.217081 C701.806002,500.973292 700.67116,506.450246 698.666854,511.490858 L762.1831,574.955798 C767.232275,572.945138 772.724912,571.807161 778.493402,571.807161 C802.866321,571.807161 822.630035,591.561195 822.630035,615.926482 C822.630035,640.29526 802.866321,660.049294 778.493402,660.049294 C754.116991,660.049294 734.356769,640.29526 734.356769,615.926482 C734.356769,610.17027 735.491611,604.686335 737.502901,599.645723 L675.124989,537.325742 L675.124989,745.750176 C690.813746,752.515209 701.806002,768.104803 701.806002,786.270556 C701.806002,810.635843 682.045781,830.389877 657.66937,830.389877 C633.296451,830.389877 613.536229,810.635843 613.536229,786.270556 C613.536229,768.104803 624.521501,752.515209 640.206767,745.750176 L640.206767,535.73746 C624.521501,528.972428 613.536229,513.382833 613.536229,495.217081 C613.536229,489.457378 614.671071,483.969952 616.678869,478.92934 L529.994382,392.317377 L529.994382,971.642217 C687.943468,965.037758 822.825577,869.283577 885.622508,733.389506 C893.919077,715.279605 900.204357,696.310984 904.314232,676.818755 C934.672134,532.752887 843.441295,391.409788 700.196272,359.235741"/><path fill="#161616" d="M1700.50529,300 C1750.95742,300 1792,259.181697 1792,209.005257 C1792,158.818303 1750.95742,118 1700.50529,118 C1650.05315,118 1609,158.818303 1609,209.005257 C1609,259.181697 1650.05315,300 1700.50529,300 Z M3518.65742,790.846878 C3504.39333,800.236214 3483.10805,805 3455.39283,805 C3432.46048,805 3415.00781,800.927389 3403.50996,792.877867 C3392.93067,785.48762 3388,777.150995 3388,766.666413 C3388,758.850828 3389.45703,751.854018 3392.32885,745.867386 C3394.45105,741.454504 3397.04836,737.871031 3400.21581,735 C3403.93229,735.606107 3407.79658,736.052712 3411.78757,736.339815 C3417.34117,736.722619 3423.21152,736.924654 3429.40916,736.924654 L3496.2213,736.924654 C3511.90019,736.924654 3523.38749,739.668084 3529.49011,744.867841 C3535.28655,749.833662 3538,756.043597 3538,764.422756 C3538,773.493088 3531.49616,782.393286 3518.65742,790.846878 Z M3408,459.207891 C3408,445.795714 3412.84654,434.88771 3422.81596,425.836613 C3433.10423,416.520243 3446.89987,412 3465,412 C3482.89819,412 3496.66194,416.48841 3507.07775,425.719893 C3517.11095,434.643659 3522,445.604718 3522,459.207891 L3522,467.410116 C3522,480.610075 3517.12157,491.560523 3507.08838,500.866282 C3496.832,510.373648 3483.3127,515 3465.74399,515 C3447.41003,515 3433.44434,510.363037 3423.06041,500.823838 C3412.93157,491.51808 3408,480.588853 3408,467.410116 L3408,459.207891 Z M3624.60858,668.568194 C3597.68345,647.897009 3559.81701,637.41882 3512.05583,637.41882 L3460.39383,637.41882 C3446.96826,637.41882 3436.76694,635.771041 3430.06473,632.528295 C3426.7982,630.943891 3423.7748,628.398283 3423.7748,620.49739 C3423.7748,617.5504 3424.20823,614.951978 3425.11736,612.554247 C3425.41336,611.783171 3425.75164,611.03322 3426.14278,610.283269 C3431.14301,611.128284 3436.25952,611.74092 3441.45004,612.100052 C3448.77595,612.607061 3456.77844,612.871128 3465.22492,612.871128 C3518.99061,612.871128 3563.54868,598.960065 3597.66231,571.539321 C3632.46306,543.558754 3650.10658,508.068114 3650.10658,466.018044 L3650.10658,457.853084 C3650.10658,443.456137 3647.99232,429.566199 3643.8378,416.57409 C3641.66011,409.750592 3638.95385,403.127785 3635.75074,396.74792 L3677,396.74792 L3675.98515,318.436134 L3528.49422,318.436134 C3518.88489,316.26022 3508.75758,314.475125 3498.35541,313.133663 C3487.39296,311.718263 3475.99708,311 3464.48492,311 C3409.76782,311 3364.87145,324.509681 3331.02212,351.148786 C3296.42221,378.379402 3278.86326,414.281986 3278.86326,457.853084 L3278.86326,466.018044 C3278.86326,492.03395 3286.08347,516.159135 3300.31246,537.738711 C3311.72947,555.072086 3327.00502,569.775351 3345.86424,581.595002 C3338.00975,588.841007 3331.34983,596.815839 3325.99017,605.456119 C3317.64941,618.860173 3313.43145,634.661958 3313.43145,652.438966 C3313.43145,663.60373 3315.17572,673.765038 3318.60082,682.616573 C3320.3768,687.20078 3322.61792,691.510358 3325.31361,695.534743 C3309.22407,704.724284 3295.66108,716.131989 3284.89948,729.567731 C3271.02992,746.890543 3264,767.540603 3264,790.947525 C3264,823.427798 3281.81266,850.933044 3316.94113,872.702748 C3350.45219,893.468998 3396.84967,904 3454.82274,904 C3516.8552,904 3567.94635,889.15942 3606.70078,859.900768 C3646.3432,829.944978 3666.4604,796.133806 3666.4604,759.386206 C3666.4604,720.452129 3652.37942,689.894266 3624.60858,668.568194 Z M3264,658.170586 L3215.37298,647.03014 L3215.37298,319 L3038.33049,319 L3038.33049,403.335508 L3085.84875,414.486524 L3085.84875,619.041617 C3079.33347,626.757486 3071.32928,632.676509 3061.48772,637.062928 C3050.41069,642.00954 3036.92606,644.503985 3021.42455,644.503985 C3005.43729,644.503985 2993.90619,639.599652 2986.18711,629.505604 C2977.88726,618.692817 2973.69509,599.667386 2973.69509,572.957795 L2973.69509,319 L2800,319 L2800,403.198102 L2844.17087,414.349118 L2844.17087,572.217917 C2844.17087,631.830934 2857.19087,676.76266 2882.84017,705.744734 C2908.81682,735.107315 2944.95182,750 2990.23145,750 C3016.14474,750 3039.6082,744.450916 3060.00938,733.511293 C3073.19833,726.429605 3085.10958,717.329107 3095.60584,706.304927 L3100.57941,742.199573 L3264,742.199573 L3264,658.170586 Z M2668,541.444398 C2668,575.527627 2662.85319,601.910219 2652.68613,619.874855 C2643.49992,636.109485 2627.33176,644 2603.27464,644 C2588.08733,644 2575.25194,641.194015 2565.14816,635.655885 C2555.84593,630.571356 2548.58977,623.461453 2543,613.956968 L2543,449.859566 C2548.67415,439.521725 2556.01468,431.7156 2565.3591,426.040336 C2575.25194,420.038059 2587.76038,417 2602.53637,417 C2626.09779,417 2642.24485,426.325155 2651.88458,445.492356 C2662.56843,466.76932 2668,496.432594 2668,533.648822 L2668,541.444398 Z M2630.39118,310.728509 C2607.64608,310.728509 2587.13422,315.514345 2569.40595,324.948977 C2559.95441,329.987809 2551.16966,336.207287 2543.1152,343.575788 L2543.1152,141 L2356,141 L2356,225.468949 L2413.67242,236.579678 L2413.67242,740.220381 L2527.0698,740.220381 L2532.44649,706.329495 C2541.96154,716.755028 2552.70434,725.346341 2564.54788,731.99802 C2583.4298,742.613299 2605.83621,748 2631.14265,748 C2685.03657,748 2726.94935,728.487704 2755.71677,690.011271 C2783.78564,652.504654 2798,602.12688 2798,540.301049 L2798,532.510889 C2798,466.626585 2783.83856,412.928241 2755.92845,372.891668 C2727.16104,331.642822 2684.93072,310.728509 2630.39118,310.728509 Z M2110,553 L2341,553 L2341,448 L2110,448 L2110,553 Z M2059.92093,639.635904 C2053.31481,641.050964 2047.33331,642.054178 2042.17757,642.624426 C2037.01125,643.205234 2030.8286,643.490358 2023.80959,643.490358 C2015.81661,643.490358 2009.78218,641.262167 2005.3781,636.700184 C2000.9846,632.14876 1998.66611,623.130395 1998.66611,610.616621 L1998.66611,416.616162 L2069.37488,416.616162 L2069.37488,319.388889 L1998.66611,319.388889 L1998.66611,221 L1869.17982,221 L1869.17982,319.388889 L1810,319.388889 L1810,416.616162 L1869.17982,416.616162 L1869.17982,610.986226 C1869.17982,658.190083 1880.41234,693.534894 1902.54919,716.028007 C1924.73898,738.563361 1956.3933,750 1996.63346,750 C2011.01024,750 2024.58243,749.017906 2036.97949,747.085399 C2049.32361,745.163453 2061.96417,742.238292 2074.55179,738.394399 L2083,735.817723 L2071.29108,637.207071 L2059.92093,639.635904 Z M1765.89697,319 L1578,319 L1578,403.654936 L1636.05222,414.800694 L1636.05222,646.738105 L1583.57869,657.883863 L1583.57869,742 L1818,742 L1818,657.894428 L1765.89697,646.74867 L1765.89697,319 Z M1395,467.410116 C1395,480.610075 1390.12203,491.549912 1380.08977,500.866282 C1369.83434,510.373648 1356.30568,515 1338.74923,515 C1320.41699,515 1306.4526,510.363037 1296.05901,500.823838 C1285.93111,491.51808 1281,480.588853 1281,467.410116 L1281,459.207891 C1281,445.795714 1285.85672,434.88771 1295.82521,425.836613 C1306.10189,416.520243 1319.89624,412 1338.00531,412 C1355.90184,412 1369.66431,416.48841 1380.06852,425.719893 C1390.12203,434.643659 1395,445.604718 1395,459.207891 L1395,467.410116 Z M1302.40916,736.924654 L1369.2213,736.924654 C1384.88963,736.924654 1396.39804,739.668084 1402.47955,744.867841 C1408.29711,749.833662 1411,756.043597 1411,764.422756 C1411,773.493088 1404.48561,782.393286 1391.64686,790.846878 C1377.38277,800.236214 1356.09749,805 1328.39283,805 C1305.46048,805 1288.00781,800.927389 1276.50996,792.877867 C1265.93067,785.48762 1261,777.150995 1261,766.666413 C1261,758.850828 1262.45703,751.854018 1265.32885,745.867386 C1267.44049,741.454504 1270.0378,737.871031 1273.21581,735 C1276.92173,735.606107 1280.79658,736.052712 1284.77701,736.339815 C1290.33061,736.722619 1296.21152,736.924654 1302.40916,736.924654 Z M1548.98515,318.436134 L1401.48364,318.436134 C1391.88489,316.26022 1381.75758,314.475125 1371.35541,313.133663 C1360.38238,311.718263 1348.98651,311 1337.48492,311 C1282.76782,311 1237.87145,324.509681 1204.02212,351.148786 C1169.41164,378.379402 1151.86326,414.281986 1151.86326,457.853084 L1151.86326,466.018044 C1151.86326,492.03395 1159.08347,516.169698 1173.30188,537.738711 C1184.72947,555.072086 1200.00502,569.775351 1218.86424,581.595002 C1210.99918,588.841007 1204.34983,596.815839 1198.9796,605.456119 C1190.64941,618.860173 1186.43145,634.661958 1186.43145,652.438966 C1186.43145,663.60373 1188.16515,673.765038 1191.60082,682.616573 C1193.3768,687.20078 1195.61792,691.510358 1198.31361,695.534743 C1182.2135,704.724284 1168.66108,716.131989 1157.89948,729.567731 C1144.02992,746.879981 1137,767.53004 1137,790.947525 C1137,823.427798 1154.81266,850.933044 1189.94113,872.702748 C1223.45219,893.468998 1269.8391,904 1327.82274,904 C1389.8552,904 1440.94635,889.15942 1479.69021,859.900768 C1519.3432,829.944978 1539.44983,796.123243 1539.44983,759.386206 C1539.44983,720.452129 1525.36884,689.894266 1497.59801,668.568194 C1470.67288,647.897009 1432.81701,637.41882 1385.05583,637.41882 L1333.39383,637.41882 C1319.96826,637.41882 1309.75637,635.771041 1303.06473,632.528295 C1299.7982,630.943891 1296.76423,628.398283 1296.76423,620.49739 C1296.76423,617.5504 1297.20823,614.951978 1298.12793,612.543685 C1298.41336,611.783171 1298.75164,611.03322 1299.13221,610.283269 C1304.13244,611.128284 1309.25952,611.74092 1314.45004,612.100052 C1321.76538,612.607061 1329.76787,612.871128 1338.22492,612.871128 C1391.99061,612.871128 1436.54868,598.960065 1470.65174,571.539321 C1505.45249,543.558754 1523.09601,508.068114 1523.09601,466.018044 L1523.09601,457.853084 C1523.09601,443.456137 1520.99232,429.566199 1516.8378,416.57409 C1514.64953,409.750592 1511.94328,403.127785 1508.74017,396.74792 L1550,396.74792 L1548.98515,318.436134 Z"/></g></svg>