<svg xmlns="http://www.w3.org/2000/svg" viewBox="0 0 3677 1024">
  <g fill="none" fill-rule="evenodd">
    <path fill="#FFF" d="M357.009067 0h309.981866C769.792 0 821.179733 0 876.5184 17.4933333c60.416 21.9904 107.997867 69.5722667 129.98827 129.9882667C1024 202.811733 1024 254.216533 1024 357.009067v309.981866c0 102.801067 0 154.1888-17.49333 209.527467-21.990403 60.416-69.57227 107.997867-129.98827 129.97973C821.179733 1024 769.792 1024 666.990933 1024H357.009067c-102.801067 0-154.197334 0-209.527467-17.50187C87.0656 984.516267 39.4837333 936.9344 17.4933333 876.5184 0 821.179733 0 769.792 0 666.990933V357.009067C0 254.216533 0 202.811733 17.4933333 147.4816 39.4837333 87.0656 87.0656 39.4837333 147.4816 17.4933333 202.811733 0 254.208 0 357.009067 0"/>
    <path fill="#D0021B" d="M120.388511 676.726932c4.109875 19.495721 10.395155 38.464341 18.695216 56.570751 62.793439 135.897562 197.675548 231.648253 355.628126 238.256202V392.229046l-86.684487 86.608471c2.007798 5.044104 3.14264 10.531529 3.14264 16.291232 0 18.162262-10.988764 33.751856-26.67403 40.516889v210.012716c15.685266 6.768523 26.67403 22.354627 26.67403 40.520379 0 24.368778-19.760222 44.119321-44.133141 44.119321-24.376411 0-44.136633-19.750543-44.136633-44.119321 0-18.165752 10.988765-33.751856 26.677522-40.520379V537.23741l-62.37442 62.319981c2.007797 5.040612 3.14264 10.524547 3.14264 16.280759 0 24.365287-19.760222 44.119321-44.133141 44.119321-24.376411 0-44.136633-19.754034-44.136633-44.119321 0-24.368778 19.760222-44.122812 44.136633-44.122812 5.764998 0 11.257635 1.137978 16.306809 3.148638l63.519738-63.46145c-2.004306-5.040612-3.139148-10.521056-3.139148-16.273777 0-24.368778 19.760222-44.122812 44.136633-44.122812 5.761507 0 11.254143 1.137977 16.299826 3.145147l111.375162-111.273962v-3.413933c-58.285497 1.124015-115.188232 7.857631-170.205383 19.680729-143.245022 32.174047-234.4758615 173.520637-204.117959 317.583014"/>
    <path fill="#161616" d="M512.169916 150.665029c49.758467 0 95.630535 16.518128 132.511162 44.321783l82.55366-82.440542c-6.274804-15.7815846-2.786474-34.1393273 8.844786-46.4999979 10.552287-11.2122209 26.565784-16.165565 41.619029-12.8772985 14.718031 3.2184519 27.058131 14.1025443 32.114289 28.2853753 5.188848 14.5388854 2.234766 31.1547541-7.633123 43.0162511-12.102656 14.549357-32.662505 19.788941-50.271765 12.769086l-81.048685 80.939528c29.792227 30.913894 50.669832 70.474323 58.411202 114.579682-55.240628-13.338075-111.706885-21.541288-168.455979-24.511898-57.475394-3.009008-115.233625-.684183-172.272541 6.988439-31.433384 4.227273-62.643291 10.081225-93.469098 17.523459 7.737878-44.105359 28.615484-83.665788 58.404219-114.579682l-81.048686-80.939528c-15.79002 6.297274-34.181447 2.810036-46.552973-8.824563-11.219225-10.548982-16.174121-26.560955-12.884824-41.6059961 3.21946-14.7134218 14.106961-27.0496574 28.294235-32.1077234 14.54344-5.1837322 31.164513-2.2305757 43.029725 7.6342239 14.539948 12.0918845 19.784665 32.6173697 12.790545 50.2106426l82.553661 82.440542c36.884118-27.803655 82.752695-44.321783 132.511161-44.321783"/>
    <path fill="#D0021B" d="M700.196272 359.235741c-55.01715-11.823099-111.916394-18.556715-170.20189-19.68422v3.413933l111.37167 111.277452c5.049175-2.007169 10.538319-3.148637 16.303318-3.148637 24.376411 0 44.136632 19.757525 44.136632 44.122812 0 5.756211-1.134842 11.233165-3.139148 16.273777l63.516246 63.46494c5.049175-2.01066 10.541812-3.148637 16.310302-3.148637 24.372919 0 44.136633 19.754034 44.136633 44.119321 0 24.368778-19.763714 44.122812-44.136633 44.122812-24.376411 0-44.136633-19.754034-44.136633-44.122812 0-5.756212 1.134842-11.240147 3.146132-16.280759l-62.377912-62.319981v208.424434c15.688757 6.765033 26.681013 22.354627 26.681013 40.52038 0 24.365287-19.760221 44.119321-44.136632 44.119321-24.372919 0-44.133141-19.754034-44.133141-44.119321 0-18.165753 10.985272-33.755347 26.670538-40.52038V535.73746c-15.685266-6.765032-26.670538-22.354627-26.670538-40.520379 0-5.759703 1.134842-11.247129 3.14264-16.287741l-86.684487-86.611963v579.32484c157.949086-6.604459 292.831195-102.35864 355.628126-238.252711 8.296569-18.109901 14.581849-37.078522 18.691724-56.570751 30.357902-144.065868-60.872937-285.408967-204.11796-317.583014"/>
    <path fill="#161616" d="M1700.50529 300C1750.95742 300 1792 259.181697 1792 209.005257 1792 158.818303 1750.95742 118 1700.50529 118 1650.05315 118 1609 158.818303 1609 209.005257 1609 259.181697 1650.05315 300 1700.50529 300zm1818.15213 490.846878C3504.39333 800.236214 3483.10805 805 3455.39283 805c-22.93235 0-40.38502-4.072611-51.88287-12.122133C3392.93067 785.48762 3388 777.150995 3388 766.666413c0-7.815585 1.45703-14.812395 4.32885-20.799027 2.1222-4.412882 4.71951-7.996355 7.88696-10.867386 3.71648.606107 7.58077 1.052712 11.57176 1.339815 5.5536.382804 11.42395.584839 17.62159.584839h66.81214c15.67889 0 27.16619 2.74343 33.26881 7.943187 5.79644 4.965821 8.50989 11.175756 8.50989 19.554915 0 9.070332-6.50384 17.97053-19.34258 26.424122zM3408 459.207891c0-13.412177 4.84654-24.320181 14.81596-33.371278C3433.10423 416.520243 3446.89987 412 3465 412c17.89819 0 31.66194 4.48841 42.07775 13.719893C3517.11095 434.643659 3522 445.604718 3522 459.207891v8.202225c0 13.199959-4.87843 24.150407-14.91162 33.456166C3496.832 510.373648 3483.3127 515 3465.74399 515c-18.33396 0-32.29965-4.636963-42.68358-14.176162C3412.93157 491.51808 3408 480.588853 3408 467.410116v-8.202225zm216.60858 209.360303c-26.92513-20.671185-64.79157-31.149374-112.55275-31.149374h-51.662c-13.42557 0-23.62689-1.647779-30.3291-4.890525-3.26653-1.584404-6.28993-4.130012-6.28993-12.030905 0-2.94699.43343-5.545412 1.34256-7.943143.296-.771076.63428-1.521027 1.02542-2.270978 5.00023.845015 10.11674 1.457651 15.30726 1.816783 7.32591.507009 15.3284.771076 23.77488.771076 53.76569 0 98.32376-13.911063 132.43739-41.331807 34.80075-27.980567 52.44427-63.471207 52.44427-105.521277v-8.16496c0-14.396947-2.11426-28.286885-6.26878-41.278994-2.17769-6.823498-4.88395-13.446305-8.08706-19.82617H3677l-1.01485-78.311786h-147.49093c-9.60933-2.175914-19.73664-3.961009-30.13881-5.302471-10.96245-1.4154-22.35833-2.133663-33.87049-2.133663-54.7171 0-99.61347 13.509681-133.4628 40.148786-34.59991 27.230616-52.15886 63.1332-52.15886 106.704298v8.16496c0 26.015906 7.22021 50.141091 21.4492 71.720667 11.41701 17.333375 26.69256 32.03664 45.55178 43.856291-7.85449 7.246005-14.51441 15.220837-19.87407 23.861117-8.34076 13.404054-12.55872 29.205839-12.55872 46.982847 0 11.164764 1.74427 21.326072 5.16937 30.177607 1.77598 4.584207 4.0171 8.893785 6.71279 12.91817-16.08954 9.189541-29.65253 20.597246-40.41413 34.032988C3271.02992 746.890543 3264 767.540603 3264 790.947525c0 32.480273 17.81266 59.985519 52.94113 81.755223C3350.45219 893.468998 3396.84967 904 3454.82274 904c62.03246 0 113.12361-14.84058 151.87804-44.099232 39.64242-29.95579 59.75962-63.766962 59.75962-100.514562 0-38.934077-14.08098-69.49194-41.85182-90.818012zM3264 658.170586l-48.62702-11.140446V319h-177.04249v84.335508l47.51826 11.151016v204.555093c-6.51528 7.715869-14.51947 13.634892-24.36103 18.021311-11.07703 4.946612-24.56166 7.441057-40.06317 7.441057-15.98726 0-27.51836-4.904333-35.23744-14.998381-8.29985-10.812787-12.49202-29.838218-12.49202-56.547809V319H2800v84.198102l44.17087 11.151016v157.868799c0 59.613017 13.02 104.544743 38.6693 133.526817C2908.81682 735.107315 2944.95182 750 2990.23145 750c25.91329 0 49.37675-5.549084 69.77793-16.488707 13.18895-7.081688 25.1002-16.182186 35.59646-27.206366l4.97357 35.894646H3264v-84.028987zm-596-116.726188c0 34.083229-5.14681 60.465821-15.31387 78.430457C2643.49992 636.109485 2627.33176 644 2603.27464 644c-15.18731 0-28.0227-2.805985-38.12648-8.344115-9.30223-5.084529-16.55839-12.194432-22.14816-21.698917V449.859566c5.67415-10.337841 13.01468-18.143966 22.3591-23.81923C2575.25194 420.038059 2587.76038 417 2602.53637 417c23.56142 0 39.70848 9.325155 49.34821 28.492356C2662.56843 466.76932 2668 496.432594 2668 533.648822v7.795576zm-37.60882-230.715889c-22.7451 0-43.25696 4.785836-60.98523 14.220468-9.45154 5.038832-18.23629 11.25831-26.29075 18.626811V141H2356v84.468949l57.67242 11.110729v503.640703h113.39738l5.37669-33.890886c9.51505 10.425533 20.25785 19.016846 32.10139 25.668525C2583.4298 742.613299 2605.83621 748 2631.14265 748c53.89392 0 95.8067-19.512296 124.57412-57.988729C2783.78564 652.504654 2798 602.12688 2798 540.301049v-7.79016c0-65.884304-14.16144-119.582648-42.07155-159.619221-28.76741-41.248846-70.99773-62.163159-125.53727-62.163159zM2110 553h231V448h-231v105zm-50.07907 86.635904c-6.60612 1.41506-12.58762 2.418274-17.74336 2.988522-5.16632.580808-11.34897.865932-18.36798.865932-7.99298 0-14.02741-2.228191-18.43149-6.790174-4.3935-4.551424-6.71199-13.569789-6.71199-26.083563V416.616162h70.70877v-97.227273h-70.70877V221h-129.48629v98.388889H1810v97.227273h59.17982v194.370064c0 47.203857 11.23252 82.548668 33.36937 105.041781C1924.73898 738.563361 1956.3933 750 1996.63346 750c14.37678 0 27.94897-.982094 40.34603-2.914601 12.34412-1.921946 24.98468-4.847107 37.5723-8.691L2083 735.817723l-11.70892-98.610652-11.37015 2.428833zM1765.89697 319H1578v84.654936l58.05222 11.145758v231.937411l-52.47353 11.145758V742H1818v-84.105572l-52.10303-11.145758V319zM1395 467.410116c0 13.199959-4.87797 24.139796-14.91023 33.456166C1369.83434 510.373648 1356.30568 515 1338.74923 515c-18.33224 0-32.29663-4.636963-42.69022-14.176162C1285.93111 491.51808 1281 480.588853 1281 467.410116v-8.202225c0-13.412177 4.85672-24.320181 14.82521-33.371278C1306.10189 416.520243 1319.89624 412 1338.00531 412c17.89653 0 31.659 4.48841 42.06321 13.719893C1390.12203 434.643659 1395 445.604718 1395 459.207891v8.202225zm-92.59084 269.514538h66.81214c15.66833 0 27.17674 2.74343 33.25825 7.943187 5.81756 4.965821 8.52045 11.175756 8.52045 19.554915 0 9.070332-6.51439 17.97053-19.35314 26.424122C1377.38277 800.236214 1356.09749 805 1328.39283 805c-22.93235 0-40.38502-4.072611-51.88287-12.122133C1265.93067 785.48762 1261 777.150995 1261 766.666413c0-7.815585 1.45703-14.812395 4.32885-20.799027 2.11164-4.412882 4.70895-7.996355 7.88696-10.867386 3.70592.606107 7.58077 1.052712 11.5612 1.339815 5.5536.382804 11.43451.584839 17.63215.584839zm246.57599-418.48852h-147.50151c-9.59875-2.175914-19.72606-3.961009-30.12823-5.302471-10.97303-1.4154-22.3689-2.133663-33.87049-2.133663-54.7171 0-99.61347 13.509681-133.4628 40.148786-34.61048 27.230616-52.15886 63.1332-52.15886 106.704298v8.16496c0 26.015906 7.22021 50.151654 21.43862 71.720667 11.42759 17.333375 26.70314 32.03664 45.56236 43.856291-7.86506 7.246005-14.51441 15.220837-19.88464 23.861117-8.33019 13.404054-12.54815 29.205839-12.54815 46.982847 0 11.164764 1.7337 21.326072 5.16937 30.177607 1.77598 4.584207 4.0171 8.893785 6.71279 12.91817-16.10011 9.189541-29.65253 20.597246-40.41413 34.032988C1144.02992 746.879981 1137 767.53004 1137 790.947525c0 32.480273 17.81266 59.985519 52.94113 81.755223C1223.45219 893.468998 1269.8391 904 1327.82274 904c62.03246 0 113.12361-14.84058 151.86747-44.099232 39.65299-29.95579 59.75962-63.777525 59.75962-100.514562 0-38.934077-14.08099-69.49194-41.85182-90.818012-26.92513-20.671185-64.781-31.149374-112.54218-31.149374h-51.662c-13.42557 0-23.63746-1.647779-30.3291-4.890525-3.26653-1.584404-6.3005-4.130012-6.3005-12.030905 0-2.94699.444-5.545412 1.3637-7.953705.28543-.760514.62371-1.510465 1.00428-2.260416 5.00023.845015 10.12731 1.457651 15.31783 1.816783 7.31534.507009 15.31783.771076 23.77488.771076 53.76569 0 98.32376-13.911063 132.42682-41.331807 34.80075-27.980567 52.44427-63.471207 52.44427-105.521277v-8.16496c0-14.396947-2.10369-28.286885-6.25821-41.278994-2.18827-6.823498-4.89452-13.446305-8.09763-19.82617H1550l-1.01485-78.311786z"/>
  </g>
</svg>
